<svg width="416" height="529" fill="none" xmlns="http://www.w3.org/2000/svg">
  <path d="M0 35.424c0-19.33 15.67-35 35-35h381v332.744c0 19.33-15.67 35-35 35H0V35.424zM0 428c0-19.33 15.67-35 35-35h381v101c0 19.33-15.67 35-35 35H0V428z" fill="#fff"/>
  <path d="M287.287 404.624l-5.423 14.725h18.084l-3.677 9.137h-16.863l-14.577 35.741h-14.156l14.734-35.741 9.123-23.862h12.755zm26.453 24.032l3.586-9.055h-13.963l-3.626 9.055h14.003zm-15.294 1.88l-13.051 33.943h14.156l12.846-33.828-13.951-.115zm22.786-10.934h13.898l-12.615 32.264c-1.252 3.218 1.595 3.158 4.079 3.158l12.641-.075-9.587 9.13H317.27c-7.284 0-12.772-2.158-10.057-9.026l14.019-35.451zm-68.698 32.526l1.075-2.561c2.06-4.935 2.436-12.381-10.168-12.381l-16.595-.087 13.555-10.87s5.238 2.583 6.049 2.583c5.667 0 12.058-.186 16.847-.178l3.84-9.096s-17.554.034-28.475.034c-9.595 0-17.871 2.573-21.717 11.462l-1.645 3.818c-1.488 3.451-4.449 12.387 11.221 12.387l17.144.733-12.799 10.39-7.483-4.592c-.579.019-12.776.242-16.112 0l-12.047 10.389s22.87.26 36.034.26c8.548.002 16.794-1.567 21.276-12.291zm-62.181 42.23c0-1.395.596-2.246 2.349-2.246.885 0 3.559.187 4.445.273v.97h-4.445c-1.09 0-1.09.425-1.09 1.003v.782c0 .936.46.969 1.09.969h2.691c1.482 0 2.213.919 2.213 2.195v.834c0 1.853-1.123 2.176-2.213 2.176-.835 0-4.02-.254-4.666-.323v-.936h4.666s.953.102.953-.917v-.834c0-.595-.204-.936-.953-.936h-2.691c-1.599 0-2.349-.476-2.349-2.228v-.782zm12.773-2.246c3.046 0 3.983 1.139 3.983 4.729 0 3.35-.937 4.472-3.983 4.472-3.047 0-3.987-1.241-3.987-4.472 0-3.691 1.023-4.729 3.987-4.729zm0 7.943c1.836 0 2.723-.238 2.723-3.214 0-3.232-.732-3.47-2.723-3.47-1.909 0-2.725.221-2.725 3.47-.001 3.01.97 3.214 2.725 3.214zm5.856-12.143h1.262v10.104c0 1.479.391 1.819.969 1.955 0 0 1.397.357 1.515.357v.902h-1.499c-1.311 0-2.248-.817-2.248-3.214v-10.104h.001zm4.94 4.288h1.26v6.292c0 1.123.664 1.633 1.533 1.633 1.363 0 2.025-.34 3.338-.97v-6.957h1.258v9.031h-.885l-.373-1.055c-1.041.597-1.959 1.209-3.338 1.209-1.805 0-2.793-1.395-2.793-2.892V492.2zm12.242-.121c.887 0 2.692.256 3.883.477v.919s-2.366-.137-3.883-.137c-1.02 0-1.719.221-1.719 3.435 0 2.603.495 3.318 1.719 3.318 1.568 0 4.002-.188 4.002-.188v.953c-1.377.39-2.587.477-4.002.493-1.685 0-2.98-.679-2.98-4.644 0-3.946 1.244-4.626 2.98-4.626zm.052 11.209c.478-.204.545-.782.545-1.429h1.141c0 1.736-.357 2.314-1.72 2.314h-.869v-.629l.903-.256zm9.384-11.176c3.047 0 3.982 1.139 3.982 4.729 0 3.35-.935 4.472-3.982 4.472-3.049 0-3.986-1.241-3.986-4.472 0-3.691 1.021-4.729 3.986-4.729zm-.716-2.806c.854.051 1.346.579 1.823.596.409.018 1.006-.323 1.551-.611l.373.713c-.561.426-1.242 1.107-1.958 1.073-.954-.052-1.208-.596-1.822-.58-.749.017-.988.357-1.618.596l-.357-.697c.68-.562 1.311-1.09 2.008-1.09zm.716 10.749c1.839 0 2.725-.238 2.725-3.214 0-3.232-.733-3.47-2.725-3.47-1.909 0-2.725.221-2.725 3.47 0 3.01.97 3.214 2.725 3.214zm9.636-7.925c2.131 0 3.458.205 3.458 3.197 0 1.31-.698 2.076-2.333 2.076h-3.814c0 2.126.391 2.652 1.718 2.652 1.567 0 2.982.018 4.258-.17v.953c-1.379.391-2.844.475-4.258.475-2.298 0-2.98-1.105-2.98-4.643.001-4.03 1.159-4.54 3.951-4.54zm1.126 4.031c.749 0 1.072-.273 1.072-.834 0-1.786-.339-1.939-2.178-1.939-1.925 0-2.708.018-2.708 2.773h3.814zm3.695-1.803c0-1.395.597-2.246 2.349-2.246.886 0 3.56.187 4.444.273v.97h-4.444c-1.089 0-1.089.425-1.089 1.003v.782c0 .936.459.969 1.089.969h2.69c1.483 0 2.215.919 2.215 2.195v.834c0 1.853-1.125 2.176-2.215 2.176-.832 0-4.017-.254-4.665-.323v-.936h4.665s.953.102.953-.917v-.834c0-.595-.204-.936-.953-.936h-2.69c-1.6 0-2.349-.476-2.349-2.228v-.782zm13.216-6.446h1.259v10.104c0 1.479.392 1.819.971 1.955 0 0 1.396.357 1.515.357v.902h-1.497c-1.314 0-2.249-.817-2.249-3.214v-10.104h.001zm8.923 4.2c3.048 0 3.984 1.139 3.984 4.729 0 3.35-.936 4.472-3.984 4.472s-3.986-1.241-3.986-4.472c0-3.691 1.022-4.729 3.986-4.729zm0 7.943c1.839 0 2.724-.238 2.724-3.214 0-3.232-.732-3.47-2.724-3.47-1.907 0-2.725.221-2.725 3.47-.001 3.01.97 3.214 2.725 3.214zm6.657-2.192c-.75-.477-.988-1.582-.988-2.483 0-2.16 1.125-3.215 2.945-3.215h5.312v.953l-1.378.305c.189.358.528.715.528 1.957 0 1.02-.391 3.316-2.81 3.316h-2.656c-.272 0-.698.069-.698.51s.32.579.698.579h3.629c1.405 0 2.195.936 2.195 2.347v1.071c0 1.02-.324 2.62-2.554 2.62h-2.554c-1.6 0-2.725-.852-2.725-2.62v-1.445l.681-1.106c-.477-.34-.629-.919-.629-1.378 0-.561.306-1.276 1.004-1.411zm1.669 6.702h2.554c1.004 0 1.294-.561 1.294-1.362v-.987c0-.798-.176-1.173-1.158-1.173h-3.389c-.528 0-.766-.137-.766-.137v2.296c0 1.244.869 1.363 1.465 1.363zm.17-7.128h1.669c1.363 0 1.687-1.259 1.651-2.058-.051-1.191-.324-1.957-1.668-1.957h-1.534c-1.396 0-1.685 1.02-1.685 1.957.001.834.255 2.058 1.567 2.058zm6.693-5.237h1.259v9.03h-1.259v-9.03zm1.866-3.369h1.616l-2.264 2.263h-1.177l1.825-2.263zm1.096 5.527c0-1.395.596-2.246 2.351-2.246.885 0 3.558.187 4.444.273v.97h-4.444c-1.09 0-1.09.425-1.09 1.003v.782c0 .936.46.969 1.09.969h2.69c1.482 0 2.215.919 2.215 2.195v.834c0 1.853-1.126 2.176-2.215 2.176-.834 0-4.019-.254-4.666-.323v-.936h4.666s.952.102.952-.917v-.834c0-.595-.204-.936-.952-.936h-2.69c-1.601 0-2.351-.476-2.351-2.228v-.782zm8.278-1.871l1.686-.305.307-2.517h.952v2.517h2.64v1.259h-2.64v4.558c0 1.48.392 1.82.971 1.956 0 0 1.396.358 1.515.358v.901h-1.499c-1.311 0-2.248-.817-2.248-3.215v-4.559h-1.686v-.953h.002zm6.947-2.67c0-.254.136-.424.409-.424h.851c.257 0 .394.186.394.424v.919c0 .255-.155.391-.394.391h-.851c-.239 0-.409-.152-.409-.391v-.919zm.17 2.381h1.261v9.031h-1.261v-9.031zm6.165-.086c.885 0 2.691.221 3.882.443v.919s-2.366-.103-3.882-.103c-1.022 0-1.721.187-1.721 3.402 0 2.602.494 3.282 1.721 3.282 1.567 0 4.001-.186 4.001-.186v.952c-1.378.391-2.587.477-4.001.492-1.686 0-2.979-.647-2.979-4.609 0-3.945 1.242-4.592 2.979-4.592zm5.363 5.937c0-1.361.853-2.262 2.265-2.262 0 0 3.78.017 3.78 0 0 0 .017-1.123 0-1.139 0-1.038-.544-1.395-1.396-1.395-1.227 0-2.707.086-4.36.205v-.918c1.209-.34 2.725-.494 4.41-.511 1.414-.016 2.606.748 2.606 2.62v6.582h-.936l-.324-1.088c-.033 0-2.232 1.191-3.78 1.191-1.244 0-2.265-.8-2.265-2.246v-1.039zm2.265 2.024c1.363 0 3.78-.867 3.78-.867v-2.433l-3.78.273c-.731.068-1.003.561-1.003 1.105v.852c0 .815.424 1.07 1.003 1.07zm6.576-5.715c0-1.395.594-2.246 2.348-2.246.886 0 3.56.187 4.445.273v.97h-4.445c-1.089 0-1.089.425-1.089 1.003v.782c0 .936.459.969 1.089.969h2.692c1.481 0 2.212.919 2.212 2.195v.834c0 1.853-1.124 2.176-2.212 2.176-.835 0-4.018-.254-4.667-.323v-.936h4.667s.953.102.953-.917v-.834c0-.595-.204-.936-.953-.936h-2.692c-1.6 0-2.348-.476-2.348-2.228v-.782zm-258.304 4.17l15.757-14.325 91.404-.247-40.903 33.694-24.829-19.077-41.429-.045z" fill="#2ECC71"/>
  <path d="M348.608 468.862l-13.031 11.779-212.379.096 42.605-36.368 29.302 24.851 153.503-.358z" fill="#2ECC71"/>
  <path d="M159.977 333.689V319.29h10.012c.765 0 1.423-.275 1.973-.824.53-.53.795-1.178.795-1.944 0-.765-.265-1.413-.795-1.943a2.744 2.744 0 00-1.973-.795h-10.012v-11.426h11.779c.765 0 1.413-.274 1.943-.824.55-.53.825-1.178.825-1.943 0-.746-.275-1.394-.825-1.944-.53-.53-1.178-.795-1.943-.795h-14.517c-.766 0-1.424.265-1.973.795-.53.55-.795 1.198-.795 1.944v36.837c0 .765.265 1.423.795 1.973.549.53 1.207.795 1.973.795h14.517c.765 0 1.413-.265 1.943-.795.55-.55.825-1.208.825-1.973 0-.746-.275-1.394-.825-1.944-.53-.53-1.178-.795-1.943-.795h-11.779zm43.949 2.886c.02-.157.03-.206.03-.147V298.56c0-.766-.275-1.414-.825-1.944a2.598 2.598 0 00-1.943-.824c-.766 0-1.414.275-1.944.824-.53.53-.795 1.178-.795 1.944v26.178l-13.692-27.444c-.02 0-.03-.02-.03-.059-.019-.02-.039-.03-.059-.03a1.01 1.01 0 00-.206-.324v-.029c-.569-.707-1.286-1.06-2.149-1.06-.766 0-1.424.275-1.973.824-.53.53-.795 1.178-.795 1.944v37.868c0 .765.265 1.413.795 1.943a2.69 2.69 0 001.973.825c.746 0 1.393-.275 1.943-.825.53-.53.795-1.178.795-1.943V310.25l13.693 27.444a2.71 2.71 0 001.619 1.355c.707.235 1.404.176 2.091-.177.785-.393 1.266-1.031 1.443-1.914v-.059c.019-.098.029-.206.029-.324zm6.641-40.371c-.766 0-1.423.265-1.973.795-.53.55-.795 1.198-.795 1.944 0 .765.265 1.413.795 1.943.55.55 1.207.825 1.973.825h7.332v34.717c0 .765.275 1.423.825 1.973.53.53 1.178.795 1.943.795.746 0 1.394-.265 1.944-.795.53-.55.795-1.208.795-1.973v-34.717h7.361c.766 0 1.414-.275 1.944-.825.53-.53.795-1.178.795-1.943 0-.746-.265-1.394-.795-1.944-.53-.53-1.178-.795-1.944-.795h-20.2zm0 0c-.766 0-1.423.265-1.973.795-.53.55-.795 1.198-.795 1.944 0 .765.265 1.413.795 1.943.55.55 1.207.825 1.973.825h7.332v34.717c0 .765.275 1.423.825 1.973.53.53 1.178.795 1.943.795.746 0 1.394-.265 1.944-.795.53-.55.795-1.208.795-1.973v-34.717h7.361c.766 0 1.414-.275 1.944-.825.53-.53.795-1.178.795-1.943 0-.746-.265-1.394-.795-1.944-.53-.53-1.178-.795-1.944-.795h-20.2zm32.289 5.595h6.272c1.55 0 2.876.55 3.975 1.649 1.119 1.099 1.678 2.424 1.678 3.975v.177c0 1.57-.559 2.905-1.678 4.005-1.099 1.099-2.425 1.649-3.975 1.649h-6.272v-11.455zm17.432 5.624c0-3.062-1.09-5.683-3.269-7.862-2.179-2.179-4.809-3.268-7.891-3.268h-9.011c-.766 0-1.423.265-1.973.795-.53.53-.795 1.177-.795 1.943v37.397c0 .765.265 1.423.795 1.973.55.53 1.207.795 1.973.795.746 0 1.394-.265 1.943-.795.531-.55.796-1.208.796-1.973V318.76h6.272c1.55 0 2.876.55 3.975 1.649 1.119 1.099 1.678 2.424 1.678 3.975v12.044c0 .765.265 1.423.795 1.973.53.53 1.178.795 1.944.795.765 0 1.413-.265 1.943-.795.55-.55.825-1.208.825-1.973v-12.044c0-3.357-1.286-6.154-3.858-8.392 2.572-2.218 3.858-5.016 3.858-8.392v-.177zm10.527 26.266V319.29h10.012c.766 0 1.423-.275 1.973-.824.53-.53.795-1.178.795-1.944 0-.765-.265-1.413-.795-1.943a2.743 2.743 0 00-1.973-.795h-10.012v-11.426h11.779c.766 0 1.413-.274 1.943-.824.55-.53.825-1.178.825-1.943 0-.746-.275-1.394-.825-1.944-.53-.53-1.177-.795-1.943-.795h-14.517c-.766 0-1.423.265-1.973.795-.53.55-.795 1.198-.795 1.944v36.837c0 .765.265 1.423.795 1.973.55.53 1.207.795 1.973.795h14.517c.766 0 1.413-.265 1.943-.795.55-.55.825-1.208.825-1.973 0-.746-.275-1.394-.825-1.944-.53-.53-1.177-.795-1.943-.795h-11.779zm30.022-20.494a2.713 2.713 0 00-1.914.824 2.658 2.658 0 00-.766 1.914c0 .746.255 1.384.766 1.914.53.55 1.168.835 1.914.854 1.55 0 2.875.55 3.975 1.649 1.099 1.099 1.649 2.425 1.649 3.975v3.711c0 1.57-.55 2.905-1.649 4.004-1.1 1.1-2.425 1.649-3.975 1.649h-.177c-1.571 0-2.906-.549-4.005-1.649-1.099-1.099-1.649-2.434-1.649-4.004v-21.084c0-1.551.55-2.876 1.649-3.975 1.099-1.099 2.434-1.649 4.005-1.649h.177c1.217 0 2.316.353 3.298 1.06a5.408 5.408 0 012.031 2.768c.413 1.197 1.276 1.796 2.592 1.796.922 0 1.668-.373 2.238-1.119.549-.765.677-1.58.382-2.444-.746-2.238-2.081-4.054-4.004-5.447-1.944-1.414-4.123-2.121-6.537-2.121h-.177c-3.082 0-5.713 1.09-7.892 3.269-2.179 2.179-3.268 4.8-3.268 7.862v21.084c0 3.082 1.089 5.712 3.268 7.891 2.179 2.179 4.81 3.269 7.892 3.269h.177c3.062 0 5.683-1.09 7.862-3.269 2.179-2.179 3.268-4.809 3.268-7.891v-3.711c0-3.062-1.079-5.673-3.239-7.832-2.159-2.179-4.77-3.279-7.833-3.298h-.058zm21.658.059v-6.302c0-.746.147-1.462.442-2.149.019-.059.029-.079.029-.059.196-.491.461-.943.795-1.355.02 0 .039-.01.059-.029 0-.02.01-.04.029-.059.177-.197.373-.393.589-.589.099-.098.157-.147.177-.147.118-.099.236-.187.353-.265.099-.079.226-.157.383-.236.098-.059.236-.128.412-.206a7.44 7.44 0 01.383-.177l.295-.088c.216-.079.441-.138.677-.177.039 0 .118-.01.236-.029.274-.04.52-.059.736-.059h.265c.216 0 .461.019.736.059.118.019.196.029.235.029.236.039.462.098.678.177.019 0 .108.029.265.088l.412.177.412.206c.138.079.265.157.383.236.118.078.236.166.353.265.04.039.099.088.177.147.216.196.412.392.589.589.059.078.079.108.059.088.334.412.608.864.824 1.355l.03.059c.294.687.442 1.403.442 2.149v6.302h-11.455zm16.402-9.777c0-.039-.01-.068-.03-.088-1.217-3.592-3.632-5.948-7.244-7.067-.019 0-.039-.01-.059-.029a49.47 49.47 0 00-.912-.236h-.118a.221.221 0 00-.089-.029 11.227 11.227 0 00-.854-.148l-.235-.029c-.373-.02-.717-.03-1.031-.03h-.206c-.314 0-.667.01-1.06.03l-.206.029c-.295.04-.579.089-.854.148a.455.455 0 00-.118.029h-.088c-.314.078-.618.157-.913.236a.235.235 0 01-.088.029c-3.612 1.119-6.027 3.475-7.244 7.067.039-.098.029-.049-.03.147a11.293 11.293 0 00-.53 3.416v29.476c0 .765.265 1.423.795 1.973.55.53 1.208.795 1.973.795.746 0 1.394-.265 1.944-.795.53-.55.795-1.208.795-1.973V318.76h11.455v17.668c0 .765.265 1.423.795 1.973.53.53 1.177.795 1.943.795s1.413-.265 1.943-.795c.55-.55.825-1.208.825-1.973v-29.476c0-1.158-.187-2.297-.559-3.416v-.059z" fill="#34495E"/>
  <path d="M100.707 301.308c-1.944 0-3.593.677-4.947 2.032-1.374 1.374-2.062 3.023-2.062 4.947v18.374c0 1.924.688 3.573 2.062 4.947 1.354 1.374 3.003 2.061 4.947 2.061 1.924 0 3.573-.687 4.947-2.061 1.374-1.374 2.061-3.023 2.061-4.947v-18.374c0-1.924-.687-3.573-2.061-4.947-1.374-1.355-3.023-2.032-4.947-2.032zm0 37.868c-3.455 0-6.4-1.227-8.834-3.681-2.454-2.434-3.681-5.379-3.681-8.834v-18.374c0-3.436 1.227-6.38 3.68-8.834 2.435-2.434 5.38-3.652 8.835-3.652 3.455 0 6.399 1.218 8.834 3.652 2.453 2.454 3.68 5.398 3.68 8.834v18.374c0 3.455-1.227 6.4-3.68 8.834-2.435 2.454-5.379 3.681-8.834 3.681zm26.546-22.821l13.487-16.078a2.6 2.6 0 00.647-1.973 2.634 2.634 0 00-.942-1.855c-.569-.491-1.237-.706-2.002-.648a2.633 2.633 0 00-1.855.943l-12.868 15.371V298.54c0-.766-.265-1.414-.795-1.944-.55-.53-1.198-.795-1.944-.795-.766 0-1.423.265-1.973.795-.53.53-.795 1.178-.795 1.944v37.868c0 .765.265 1.413.795 1.943.55.55 1.207.825 1.973.825.746 0 1.394-.275 1.944-.825.53-.53.795-1.178.795-1.943v-15.636l12.75 17.285c.451.608 1.05.972 1.796 1.089a2.604 2.604 0 002.032-.5 2.716 2.716 0 001.06-1.796 2.6 2.6 0 00-.501-2.032l-13.604-18.463zm-26.254-55.853c1.969-1.231 5.906-8.121 6.398-15.996l.247-.246.492 14.027c38.389-.985 85.145-10.582 105.324-65.951-.787 6.3-4.101 15.585-5.66 19.441 20.672 2.707 32.238 15.831 39.62 23.624 4.134 4.528 11.402 17.144 14.519 22.886 1.181 7.678 10.828 8.449 15.504 7.875 13.583-.788 22.393-7.547 25.1-10.828.394-2.166-1.476-5.332-2.461-6.644-1.378-2.363-3.363-2.789-4.183-2.707-2.166 0-13.207 1.804-18.456 2.707l15.749-6.645c-26.823-54.385-60.783-60.291-75.794-63.982.787-3.544 1.804-14.929 2.214-20.179.394-5.709-.492-16.16-.984-20.671l-24.608-1.723h43.065v44.788h98.188v-80.224h4.183V81.105H234.624l-.246 18.949h2.707v15.995l-22.148 1.231-1.969-6.644c-3.544.984-10.007 1.066-12.796.984 12.599-3.347 20.343-12.55 22.64-16.734 3.937-5.709 4.101-14.519 3.691-18.21l3.937-.984c3.741-.788 5.168-3.446 5.414-4.676.591-5.513-3.691-7.055-5.906-7.137l-5.414.985c-1.575-6.497-7.711-13.043-10.582-15.504l27.316-16.241c2.756-1.772.82-4.02-.492-4.922-8.466-4.528-18.457-.246-22.394 2.46l-12.55 8.368c-11.025-6.694-24.445-4.43-29.777-2.461-18.702 6.497-24.526 22.23-25.1 29.284-.985 6.103 1.066 14.355 2.214 17.718-4.134.59-6.972-5.004-7.874-7.874l-4.184 7.136c2.166 6.89 10.582 3.855 14.519 1.477 2.953 15.158 14.847 23.214 20.425 25.346 3.938 21.41 2.625 24.691 2.215 34.206-.591 7.481-4.511 18.703-6.398 23.378-2.363 5.906-9.515 15.914-12.797 20.179 2.953 3.347 9.762 6.809 12.797 8.121-6.694 12.009-18.703 19.769-23.87 22.148-9.844 4.725-29.203 5.742-37.651 5.66-6.694-.591-11.32 2.871-12.797 4.675-7.875 7.088-9.515 20.836-9.351 26.824.59 5.906 8.777 6.234 12.796 5.66z" fill="#2ECC71"/>
  <circle cx="287.275" cy="133.755" r="33.221" fill="#fff"/>
  <path d="M271.526 128.834l-4.922 4.675 16.488 17.965 24.854-27.562-5.168-4.676-19.932 21.902-11.32-12.304z" fill="#2ECC71"/>
</svg>
